<?xml version="1.0" encoding="utf-8"?>
<!-- Generator: Adobe Illustrator 21.0.2, SVG Export Plug-In . SVG Version: 6.00 Build 0)  -->
<svg version="1.1" id="Layer_1" xmlns="http://www.w3.org/2000/svg" xmlns:xlink="http://www.w3.org/1999/xlink" x="0px" y="0px"
	 viewBox="0 0 77.7 77.7" style="enable-background:new 0 0 77.7 77.7;" xml:space="preserve">
<style type="text/css">
	.st0{fill:none;}
	.st1{fill:#3ACCB0;}
	.st2{opacity:0.8;fill:#3ACCB0;enable-background:new    ;}
	.st3{opacity:0.6;fill:#3ACCB0;enable-background:new    ;}
</style>
<title>header-icon</title>
<g id="Layer_2">
	<g id="Layer_1-2">
		<path class="st0" d="M10,0h57.7c5.5,0,10,4.5,10,10v57.7c0,5.5-4.5,10-10,10H10c-5.5,0-10-4.5-10-10V10C0,4.5,4.5,0,10,0z"/>
		<path class="st1" d="M37.9,49.7h-4.5v7.7h-7.6v-7.7H10.5v-5.4l15.7-23.9h7.2v23.2h4.5V49.7z M25.8,43.6v-6.3c0-0.2,0-0.5,0-0.9
			s0-0.9,0-1.4c0-0.5,0-1.1,0.1-1.6s0.1-1.1,0.1-1.6c0-0.5,0.1-0.9,0.1-1.3c0-0.4,0-0.7,0.1-0.8h-0.2c-0.3,0.7-0.6,1.5-1,2.3
			c-0.4,0.8-0.8,1.6-1.3,2.4l-6.2,9.4H25.8z"/>
		<path class="st2" d="M56.7,26.7C54,26.6,51.5,27.8,50,30c-1.6,2.2-2.4,5.2-2.4,9c0,8,3,12,9,12c3.1-0.1,6.2-0.8,9.2-1.9v6.4
			c-3.1,1.3-6.5,1.9-9.9,1.8c-5.2,0-9.2-1.6-12-4.8s-4.2-7.7-4.2-13.7c-0.1-3.4,0.6-6.8,2-9.8c1.3-2.7,3.3-5,5.9-6.5
			c2.7-1.5,5.8-2.3,9-2.3c3.7,0,7.3,0.9,10.5,2.5l-2.5,6.2c-1.3-0.6-2.7-1.2-4.1-1.7C59.4,27,58,26.7,56.7,26.7z"/>
		<polyline class="st3" points="21.6,20.4 10.5,20.4 10.5,37.2 		"/>
	</g>
</g>
</svg>
