<svg xmlns="http://www.w3.org/2000/svg" width="30" height="30" viewBox="0 0 30 30"><title>notifications-icon_1</title><g id="Layer_2" data-name="Layer 2"><g id="Layer_1-2" data-name="Layer 1"><g id="Group_247" data-name="Group 247"><path id="Path_317" data-name="Path 317" d="M12.646,24.4395a2.434,2.434,0,1,0,4.786.628,2.579,2.579,0,0,0-.078-.628Z" fill="#7f507b"/><path id="Path_318" data-name="Path 318" d="M24.885,21.7465a1.041,1.041,0,0,0-.235-.549c-.026-.026-2.118-2.3-2.118-8.316a7.008,7.008,0,0,0-5.727-7.244v-1.36a1.8,1.8,0,0,0-1.779-1.778,1.82,1.82,0,0,0-1.8,1.778v1.386a6.987,6.987,0,0,0-5.731,7.244c0,6.015-2.092,8.292-2.118,8.292a.9.9,0,0,0-.262.547h0v1.647h19.77Z" fill="#7f507b"/></g><circle id="Ellipse_26" data-name="Ellipse 26" cx="15" cy="15" r="15" fill="none" opacity="0.5" style="isolation:isolate"/></g></g></svg>