<svg xmlns="http://www.w3.org/2000/svg" width="30" height="30" viewBox="0 0 30 30"><title>settings-menu-icon</title><g id="Layer_2" data-name="Layer 2"><g id="Layer_1-2" data-name="Layer 1"><circle id="Ellipse_30" data-name="Ellipse 30" cx="15" cy="15" r="15" fill="#7f507b"/><path id="Path_220" data-name="Path 220" d="M9,10.125H6.375a.375.375,0,0,1,0-.75H9a.375.375,0,0,1,0,.75Z" fill="#fff"/><path id="Path_221" data-name="Path 221" d="M23.625,10.125H10.5a.375.375,0,0,1,0-.75H23.625a.375.375,0,0,1,0,.75Z" fill="#fff"/><path id="Path_222" data-name="Path 222" d="M14.25,21.375H6.375a.375.375,0,0,1,0-.75H14.25a.375.375,0,0,1,0,.75Z" fill="#fff"/><path id="Path_223" data-name="Path 223" d="M23.625,21.375h-7.5a.375.375,0,0,1,0-.75h7.5a.375.375,0,0,1,0,.75Z" fill="#fff"/><path id="Path_224" data-name="Path 224" d="M16.125,15.75H6.375a.375.375,0,0,1,0-.75h9.75a.375.375,0,0,1,0,.75Z" fill="#fff"/><path id="Path_225" data-name="Path 225" d="M23.625,15.75H18A.375.375,0,0,1,18,15h5.625a.375.375,0,0,1,0,.75Z" fill="#fff"/><path id="Path_226" data-name="Path 226" d="M9,12a.354.354,0,0,1-.375-.375V7.875a.375.375,0,0,1,.75,0v3.75A.354.354,0,0,1,9,12Z" fill="#fff"/><path id="Path_227" data-name="Path 227" d="M16.5,17.625a.354.354,0,0,1-.375-.375V13.5a.375.375,0,0,1,.75,0v3.75a.354.354,0,0,1-.375.375Z" fill="#fff"/><path id="Path_228" data-name="Path 228" d="M14.625,23.25a.354.354,0,0,1-.375-.375v-3.75a.375.375,0,0,1,.75,0v3.75a.354.354,0,0,1-.375.375Z" fill="#fff"/></g></g></svg>