<svg xmlns="http://www.w3.org/2000/svg" width="30" height="30" viewBox="0 0 30 30"><title>theme-icon_1</title><g id="Layer_2" data-name="Layer 2"><g id="Layer_1-2" data-name="Layer 1"><path id="Path_320" data-name="Path 320" d="M2.5159,14.7075a12.348,12.348,0,0,0,3.568,8.891,12.97,12.97,0,0,0,9.161,3.87h.11a2.868,2.868,0,0,0,0-5.735,1.78,1.78,0,0,1-1.784-1.776v-.008a1.751,1.751,0,0,1,.3-.988,1.788,1.788,0,0,1,1.921-.659l.082.027a2.289,2.289,0,0,1,1.509,1.345,3.381,3.381,0,0,0,3.133,2.086,6.978,6.978,0,0,0,6.97-6.778V14.79h0a12.488,12.488,0,0,0-24.97-.083Zm6.065.6a1.5238,1.5238,0,1,0-.005.004Zm.357-3.211a2.141,2.141,0,1,1,2.135-2.147V9.96a2.143,2.143,0,0,1-2.14,2.14ZM22.8459,8.89a2.141,2.141,0,1,1-2.141-2.141h.001A2.143,2.143,0,0,1,22.8459,8.89Zm-6.065-1.784a2.141,2.141,0,1,1-2.144-2.138h.004A2.143,2.143,0,0,1,16.7809,7.1065Z" fill="#7f507b"/><circle id="Ellipse_26" data-name="Ellipse 26" cx="15" cy="15" r="15" fill="none" opacity="0.5" style="isolation:isolate"/></g></g></svg>