<svg xmlns="http://www.w3.org/2000/svg" width="30" height="30" viewBox="0 0 30 30"><title>units-icon_1</title><g id="Layer_2" data-name="Layer 2"><g id="Layer_1-2" data-name="Layer 1"><g id="Group_248" data-name="Group 248"><path id="Path_319" data-name="Path 319" d="M15.002,2.4475a1.6,1.6,0,0,0-1.606,1.594v18.497a2.7,2.7,0,0,0-1.146,2.157,2.752,2.752,0,1,0,5.5.21q.004-.1048,0-.21a2.63,2.63,0,0,0-1.147-2.156V4.0525a1.6,1.6,0,0,0-1.595-1.605Zm0,.917a.65.65,0,0,1,.688.688v7.706H14.314V4.0525a.65.65,0,0,1,.688-.688Z" fill="#7f507b"/></g><circle id="Ellipse_26" data-name="Ellipse 26" cx="15" cy="15" r="15" fill="none" opacity="0.5" style="isolation:isolate"/></g></g></svg>