<svg width="158" height="48" viewBox="0 0 158 48" version="1.1" xmlns="http://www.w3.org/2000/svg" xmlns:xlink="http://www.w3.org/1999/xlink">
<title>Group</title>
<desc>Created using Figma</desc>
<g id="Canvas" transform="translate(-1701 -4826)">
<g id="Group">
<g id="Group">
<g id="Group">
<g id="Vector">
<use xlink:href="#path0_fill" transform="translate(1752.22 4836.93)" fill="#FFFFFF"/>
</g>
<g id="Vector">
<use xlink:href="#path1_fill" transform="translate(1760.9 4826.64)" fill="#FFFFFF"/>
</g>
<g id="Vector">
<use xlink:href="#path2_fill" transform="translate(1769.59 4835.07)" fill="#FFFFFF"/>
</g>
<g id="Vector">
<use xlink:href="#path3_fill" transform="translate(1777.96 4826.22)" fill="#FFFFFF"/>
</g>
<g id="Vector">
<use xlink:href="#path4_fill" transform="translate(1786.49 4831.06)" fill="#FFFFFF"/>
</g>
<g id="Vector">
<use xlink:href="#path5_fill" transform="translate(1794.87 4826)" fill="#FFFFFF"/>
</g>
</g>
</g>
<g id="WeatherFlex">
<use xlink:href="#path6_fill" transform="translate(1700.14 4846.08)" fill="#FFFFFF"/>
</g>
</g>
</g>
<defs>
<path id="path0_fill" d="M 14.9591 6.78599C 12.453 8.81907 9.94637 9.92189 7.44029 11.0208C 4.96019 9.92337 2.4801 7.74781 3.30437e-06 4.24611C 2.50609 3.23203 5.01271 2.17112 7.51933 7.52241e-08C 9.99943 2.988 12.4795 5.21237 14.9591 6.78599Z"/>
<path id="path1_fill" d="M 14.9591 7.81338C 12.4525 10.8837 9.94637 13.8924 7.43975 16.0951C 4.95965 14.4722 2.47955 12.2237 -9.25223e-07 9.23614C 2.50662 6.8555 5.01271 3.4874 7.51933 -6.77017e-08C 9.99943 3.41296 12.4795 5.93903 14.9591 7.81338Z"/>
<path id="path2_fill" d="M 14.9591 4.88404C 12.453 7.91888 9.94637 10.8063 7.44029 12.658C 4.96019 10.8847 2.4801 9.76167 3.1061e-06 8.22847C 2.50609 6.04108 5.01271 3.0447 7.51933 4.0621e-07C 9.99888 1.75849 12.479 3.07477 14.9591 4.88404Z"/>
<path id="path3_fill" d="M 14.9596 4.37675C 12.4535 6.52914 9.94691 9.49891 7.44029 12.549C 4.96019 10.7669 2.48009 9.45158 -3.89915e-06 7.66844C 2.50662 4.64445 5.01271 1.7999 7.51933 1.01553e-07C 9.99943 1.723 12.4795 2.82828 14.9596 4.37675Z"/>
<path id="path4_fill" d="M 14.9591 6.8836C 12.453 9.21001 9.94637 12.5387 7.44029 16.031C 4.96019 12.6249 2.4801 10.0895 2.57741e-06 8.21023C 2.50609 5.13743 5.01271 2.16077 7.51933 2.78329e-07C 9.99888 1.62341 12.479 3.88524 14.9591 6.8836Z"/>
<path id="path5_fill" d="M 14.9596 6.77465C 12.453 7.78873 9.94691 8.84964 7.44028 11.0208C 4.96019 8.03276 2.4801 5.80888 3.83307e-06 4.23477C 2.50663 2.20169 5.01271 1.09838 7.51934 1.69254e-08C 9.99998 1.09739 12.4795 3.27246 14.9596 6.77465Z"/>
<path id="path6_fill" d="M 8.54014 27L 10.3221 27L 17.2341 11.529L 24.1461 27L 25.9281 27L 33.4341 8.1L 30.8151 8.1L 24.9561 22.842L 18.3951 8.1L 16.0731 8.1L 9.51214 22.842L 3.65314 8.1L 1.03414 8.1L 8.54014 27ZM 32.3447 20.358C 32.3447 21.438 32.5067 22.383 32.8307 23.247C 33.1547 24.111 33.6407 24.867 34.2617 25.461C 34.8557 26.055 35.5847 26.514 36.4217 26.838C 37.2587 27.162 38.2037 27.324 39.2297 27.324C 39.8507 27.324 40.4447 27.27 40.9847 27.135C 41.5247 27 42.0107 26.811 42.4697 26.568C 42.9017 26.352 43.3067 26.082 43.6847 25.785C 44.0357 25.515 44.3597 25.218 44.6297 24.894L 43.4147 23.085C 42.9287 23.652 42.3617 24.138 41.6597 24.543C 40.9577 24.975 40.0937 25.164 39.1217 25.164C 38.5277 25.164 37.9877 25.083 37.4747 24.894C 36.9347 24.732 36.4757 24.462 36.0977 24.111C 35.6927 23.76 35.3687 23.328 35.1257 22.788C 34.8557 22.275 34.7207 21.681 34.6937 20.979L 34.6937 20.952L 45.4937 20.952L 45.4937 20.25C 45.4937 19.278 45.3317 18.333 45.0617 17.469C 44.7917 16.605 44.3867 15.876 43.8467 15.228C 43.3067 14.58 42.6317 14.094 41.8217 13.716C 41.0117 13.365 40.0667 13.176 39.0137 13.176C 37.9877 13.176 37.0427 13.365 36.2327 13.743C 35.4227 14.121 34.7207 14.634 34.1537 15.282C 33.5597 15.93 33.1277 16.713 32.8037 17.577C 32.4797 18.441 32.3447 19.386 32.3447 20.358ZM 42.9557 19.089L 34.8017 19.089C 34.9637 17.955 35.3687 17.064 36.0707 16.362C 36.7727 15.687 37.7447 15.336 39.0407 15.336C 40.2557 15.336 41.1737 15.687 41.8217 16.362C 42.4697 17.064 42.8477 17.955 42.9557 19.089ZM 56.4014 20.547L 56.4014 21.546C 56.4014 21.978 56.2934 22.41 56.1314 22.815C 55.9424 23.247 55.6724 23.625 55.3214 23.949C 54.9704 24.3 54.5384 24.57 54.0524 24.786C 53.5394 25.002 52.9724 25.083 52.3244 25.083C 51.4874 25.083 50.8664 24.921 50.4344 24.543C 50.0024 24.165 49.8134 23.706 49.8134 23.112C 49.8134 22.626 49.9754 22.167 50.3264 21.789C 50.6774 21.411 51.2444 21.195 52.0004 21.087L 56.4014 20.547ZM 47.8694 16.578L 49.9214 17.685C 50.0564 16.848 50.4344 16.227 51.0554 15.849C 51.6764 15.471 52.4594 15.255 53.4044 15.255C 54.4034 15.255 55.1594 15.471 55.6454 15.876C 56.1314 16.281 56.4014 16.821 56.4014 17.469L 56.4014 17.82C 56.4014 18.252 56.1044 18.495 55.5374 18.549L 51.7304 18.927C 51.0824 18.981 50.5154 19.116 50.0024 19.332C 49.4624 19.548 49.0034 19.818 48.6254 20.169C 48.2204 20.52 47.9234 20.925 47.7074 21.411C 47.4914 21.897 47.3834 22.464 47.3834 23.085C 47.3834 23.679 47.4644 24.246 47.6804 24.759C 47.8964 25.272 48.1934 25.704 48.5714 26.082C 48.9494 26.46 49.4354 26.73 50.0024 26.946C 50.5694 27.162 51.2174 27.27 51.9734 27.27C 52.9454 27.27 53.8094 27.081 54.5654 26.703C 55.3214 26.325 55.9154 25.785 56.4014 25.083L 56.4014 27L 58.7234 27L 58.7234 18.225C 58.7234 16.605 58.2644 15.363 57.4004 14.499C 56.5364 13.635 55.1594 13.176 53.2964 13.176C 51.6494 13.176 50.4074 13.5 49.5434 14.121C 48.6794 14.769 48.1124 15.579 47.8694 16.578ZM 69.0581 26.811L 69.0581 24.759C 68.6801 24.84 68.3291 24.894 68.0051 24.921C 67.6811 24.975 67.3031 24.975 66.8711 24.975C 66.2771 24.975 65.8721 24.84 65.6561 24.57C 65.4401 24.3 65.3321 23.895 65.3321 23.355L 65.3321 15.525L 69.0311 15.525L 69.0311 13.5L 65.3321 13.5L 65.3321 9.882L 63.0101 9.882L 63.0101 13.5L 60.3371 13.5L 60.3371 15.525L 63.0101 15.525L 63.0101 23.22C 63.0101 24.678 63.3071 25.677 63.9281 26.271C 64.5491 26.865 65.4941 27.135 66.7361 27.135C 67.1681 27.135 67.5731 27.108 67.9511 27.054C 68.3291 27 68.6801 26.919 69.0581 26.811ZM 73.9527 8.1L 71.6307 8.1L 71.6307 27L 73.9527 27L 73.9527 20.709C 73.9527 19.953 74.0067 19.251 74.1147 18.603C 74.2227 17.955 74.4387 17.388 74.7357 16.902C 75.0327 16.416 75.4377 16.038 75.9507 15.768C 76.4637 15.498 77.1117 15.336 77.8947 15.336C 78.9207 15.336 79.7037 15.66 80.2437 16.308C 80.7837 16.956 81.0537 17.847 81.0537 18.954L 81.0537 27L 83.4297 27L 83.4297 19.062C 83.4297 18.198 83.3217 17.415 83.1057 16.686C 82.8897 15.957 82.5927 15.336 82.1877 14.823C 81.7557 14.31 81.2427 13.905 80.5947 13.608C 79.9467 13.338 79.2177 13.176 78.3537 13.176C 76.4367 13.176 74.9787 13.878 73.9527 15.282L 73.9527 8.1ZM 85.87 20.358C 85.87 21.438 86.032 22.383 86.356 23.247C 86.68 24.111 87.166 24.867 87.787 25.461C 88.381 26.055 89.11 26.514 89.947 26.838C 90.784 27.162 91.729 27.324 92.755 27.324C 93.376 27.324 93.97 27.27 94.51 27.135C 95.05 27 95.536 26.811 95.995 26.568C 96.427 26.352 96.832 26.082 97.21 25.785C 97.561 25.515 97.885 25.218 98.155 24.894L 96.94 23.085C 96.454 23.652 95.887 24.138 95.185 24.543C 94.483 24.975 93.619 25.164 92.647 25.164C 92.053 25.164 91.513 25.083 91 24.894C 90.46 24.732 90.001 24.462 89.623 24.111C 89.218 23.76 88.894 23.328 88.651 22.788C 88.381 22.275 88.246 21.681 88.219 20.979L 88.219 20.952L 99.019 20.952L 99.019 20.25C 99.019 19.278 98.857 18.333 98.587 17.469C 98.317 16.605 97.912 15.876 97.372 15.228C 96.832 14.58 96.157 14.094 95.347 13.716C 94.537 13.365 93.592 13.176 92.539 13.176C 91.513 13.176 90.568 13.365 89.758 13.743C 88.948 14.121 88.246 14.634 87.679 15.282C 87.085 15.93 86.653 16.713 86.329 17.577C 86.005 18.441 85.87 19.386 85.87 20.358ZM 96.481 19.089L 88.327 19.089C 88.489 17.955 88.894 17.064 89.596 16.362C 90.298 15.687 91.27 15.336 92.566 15.336C 93.781 15.336 94.699 15.687 95.347 16.362C 95.995 17.064 96.373 17.955 96.481 19.089ZM 103.825 15.525L 103.825 13.5L 101.584 13.5L 101.584 27L 103.906 27L 103.906 20.709C 103.906 19.953 103.96 19.278 104.095 18.63C 104.203 18.009 104.419 17.469 104.743 17.01C 105.067 16.578 105.472 16.227 105.985 15.984C 106.471 15.741 107.119 15.606 107.875 15.606C 108.118 15.606 108.334 15.633 108.55 15.66C 108.766 15.687 108.982 15.714 109.225 15.768L 109.225 13.311C 109.009 13.284 108.793 13.257 108.577 13.23C 108.361 13.203 108.118 13.176 107.902 13.176C 106.93 13.176 106.12 13.392 105.445 13.797C 104.77 14.202 104.23 14.769 103.825 15.525ZM 123.536 8.1L 111.926 8.1L 111.926 27L 114.356 27L 114.356 18.765L 123.536 18.765L 123.536 16.335L 114.356 16.335L 114.356 10.53L 123.536 10.53L 123.536 8.1ZM 128.877 8.1L 126.501 8.1L 126.501 27L 128.877 27L 128.877 8.1ZM 131.564 20.358C 131.564 21.438 131.726 22.383 132.05 23.247C 132.374 24.111 132.86 24.867 133.481 25.461C 134.075 26.055 134.804 26.514 135.641 26.838C 136.478 27.162 137.423 27.324 138.449 27.324C 139.07 27.324 139.664 27.27 140.204 27.135C 140.744 27 141.23 26.811 141.689 26.568C 142.121 26.352 142.526 26.082 142.904 25.785C 143.255 25.515 143.579 25.218 143.849 24.894L 142.634 23.085C 142.148 23.652 141.581 24.138 140.879 24.543C 140.177 24.975 139.313 25.164 138.341 25.164C 137.747 25.164 137.207 25.083 136.694 24.894C 136.154 24.732 135.695 24.462 135.317 24.111C 134.912 23.76 134.588 23.328 134.345 22.788C 134.075 22.275 133.94 21.681 133.913 20.979L 133.913 20.952L 144.713 20.952L 144.713 20.25C 144.713 19.278 144.551 18.333 144.281 17.469C 144.011 16.605 143.606 15.876 143.066 15.228C 142.526 14.58 141.851 14.094 141.041 13.716C 140.231 13.365 139.286 13.176 138.233 13.176C 137.207 13.176 136.262 13.365 135.452 13.743C 134.642 14.121 133.94 14.634 133.373 15.282C 132.779 15.93 132.347 16.713 132.023 17.577C 131.699 18.441 131.564 19.386 131.564 20.358ZM 142.175 19.089L 134.021 19.089C 134.183 17.955 134.588 17.064 135.29 16.362C 135.992 15.687 136.964 15.336 138.26 15.336C 139.475 15.336 140.393 15.687 141.041 16.362C 141.689 17.064 142.067 17.955 142.175 19.089ZM 151.881 22.059L 155.769 27L 158.631 27L 153.312 20.25L 158.631 13.5L 155.769 13.5L 151.881 18.441L 147.993 13.5L 145.131 13.5L 150.45 20.25L 145.131 27L 147.993 27L 151.881 22.059Z"/>
</defs>
</svg>
