<svg xmlns="http://www.w3.org/2000/svg" width="23.75" height="21.9967" viewBox="0 0 23.75 21.9967"><title>editor-selected</title><g id="Layer_2" data-name="Layer 2"><g id="Layer_1-2" data-name="Layer 1"><g id="Canvas"><g id="list"><g id="Vector"><path id="path0_fill" data-name="path0 fill" d="M20.8333,4.1667H22.5a1.2536,1.2536,0,0,0,1.25-1.25V1.25A1.2816,1.2816,0,0,0,22.5,0H20.8333a1.2816,1.2816,0,0,0-1.25,1.25V2.9167A1.2536,1.2536,0,0,0,20.8333,4.1667Z" fill="#ededed"/></g><g id="Vector-2" data-name="Vector"><path id="path1_fill" data-name="path1 fill" d="M.625,2.9567h13.75A.6408.6408,0,0,0,15,2.3317V1.915a.6408.6408,0,0,0-.625-.625H.625A.6408.6408,0,0,0,0,1.915v.4167A.6408.6408,0,0,0,.625,2.9567Z" fill="#ededed"/></g><g id="Vector-3" data-name="Vector"><path id="path2_fill" data-name="path2 fill" d="M20.8333,13.0866H22.5a1.2536,1.2536,0,0,0,1.25-1.25V10.17A1.2536,1.2536,0,0,0,22.5,8.92H20.8333a1.2536,1.2536,0,0,0-1.25,1.25v1.6667A1.2536,1.2536,0,0,0,20.8333,13.0866Z" fill="#ededed"/></g><g id="Vector-4" data-name="Vector"><path id="path3_fill" data-name="path3 fill" d="M.625,11.8766h13.75a.6408.6408,0,0,0,.625-.625V10.835a.6408.6408,0,0,0-.625-.625H.625A.6408.6408,0,0,0,0,10.835v.4167A.6408.6408,0,0,0,.625,11.8766Z" fill="#ededed"/></g><g id="Vector-5" data-name="Vector"><path id="path4_fill" data-name="path4 fill" d="M20.8333,21.9967H22.5a1.2536,1.2536,0,0,0,1.25-1.25V19.08a1.2536,1.2536,0,0,0-1.25-1.25H20.8333a1.2536,1.2536,0,0,0-1.25,1.25v1.6667A1.2816,1.2816,0,0,0,20.8333,21.9967Z" fill="#ededed"/></g><g id="Vector-6" data-name="Vector"><path id="path5_fill" data-name="path5 fill" d="M.625,20.7467h13.75a.6408.6408,0,0,0,.625-.625v-.4167a.6408.6408,0,0,0-.625-.625H.625a.6408.6408,0,0,0-.625.625v.4167A.6408.6408,0,0,0,.625,20.7467Z" fill="#ededed"/></g></g></g></g></g></svg>