<svg width="24" height="22" viewBox="0 0 24 22" version="1.1" xmlns="http://www.w3.org/2000/svg" xmlns:xlink="http://www.w3.org/1999/xlink">
<title>list</title>
<desc>Created using Figma</desc>
<g id="Canvas" transform="translate(-821 -5173)">
<g id="list">
<g id="Vector">
<use xlink:href="#path0_fill" transform="matrix(-1 0 0 1 845 5173)" fill="#9A9A9A"/>
</g>
<g id="Vector">
<use xlink:href="#path1_fill" transform="matrix(-1 0 0 1 836.25 5174.29)" fill="#9A9A9A"/>
</g>
<g id="Vector">
<use xlink:href="#path2_fill" transform="matrix(-1 0 0 1 845 5181.92)" fill="#9A9A9A"/>
</g>
<g id="Vector">
<use xlink:href="#path3_fill" transform="matrix(-1 0 0 1 836.25 5183.21)" fill="#9A9A9A"/>
</g>
<g id="Vector">
<use xlink:href="#path4_fill" transform="matrix(-1 0 0 1 845 5190.83)" fill="#9A9A9A"/>
</g>
<g id="Vector">
<use xlink:href="#path5_fill" transform="matrix(-1 0 0 1 836.25 5192.08)" fill="#9A9A9A"/>
</g>
</g>
</g>
<defs>
<path id="path0_fill" d="M 2.91667 4.16667L 1.25 4.16667C 0.583333 4.16667 0 3.625 0 2.91667L 0 1.25C 0 0.583333 0.583333 1.58946e-07 1.25 1.58946e-07L 2.91667 1.58946e-07C 3.58333 1.58946e-07 4.16667 0.583333 4.16667 1.25L 4.16667 2.91667C 4.16667 3.625 3.58333 4.16667 2.91667 4.16667Z"/>
<path id="path1_fill" d="M 14.375 1.66667L 0.625 1.66667C 0.291667 1.66667 0 1.375 0 1.04167L 0 0.625C 0 0.291667 0.291667 3.17891e-07 0.625 3.17891e-07L 14.375 3.17891e-07C 14.7083 3.17891e-07 15 0.291667 15 0.625L 15 1.04167C 15 1.375 14.7083 1.66667 14.375 1.66667Z"/>
<path id="path2_fill" d="M 2.91667 4.16667L 1.25 4.16667C 0.583333 4.16667 0 3.625 0 2.91667L 0 1.25C 0 0.541667 0.583333 0 1.25 0L 2.91667 0C 3.58333 0 4.16667 0.541667 4.16667 1.25L 4.16667 2.91667C 4.16667 3.625 3.58333 4.16667 2.91667 4.16667Z"/>
<path id="path3_fill" d="M 14.375 1.66667L 0.625 1.66667C 0.291667 1.66667 0 1.375 0 1.04167L 0 0.624999C 0 0.291666 0.291667 -6.35783e-07 0.625 -6.35783e-07L 14.375 -6.35783e-07C 14.7083 -6.35783e-07 15 0.291666 15 0.624999L 15 1.04167C 15 1.375 14.7083 1.66667 14.375 1.66667Z"/>
<path id="path4_fill" d="M 2.91667 4.16667L 1.25 4.16667C 0.583333 4.16667 0 3.625 0 2.91667L 0 1.25C 0 0.541667 0.583333 6.35783e-07 1.25 6.35783e-07L 2.91667 6.35783e-07C 3.58333 6.35783e-07 4.16667 0.541667 4.16667 1.25L 4.16667 2.91667C 4.16667 3.58333 3.58333 4.16667 2.91667 4.16667Z"/>
<path id="path5_fill" d="M 14.375 1.66667L 0.625 1.66667C 0.291667 1.66667 0 1.375 0 1.04167L 0 0.625001C 0 0.291667 0.291667 6.35783e-07 0.625 6.35783e-07L 14.375 6.35783e-07C 14.7083 6.35783e-07 15 0.291667 15 0.625001L 15 1.04167C 15 1.375 14.7083 1.66667 14.375 1.66667Z"/>
</defs>
</svg>
