<svg xmlns="http://www.w3.org/2000/svg" width="44.7079" height="44.7079" viewBox="0 0 44.7079 44.7079"><title>Asset 3</title><g id="Layer_2" data-name="Layer 2"><g id="Layer_1-2" data-name="Layer 1"><g id="Layer_2-2" data-name="Layer 2" opacity="0.8"><g id="Layer_1-2-2" data-name="Layer 1-2"><path d="M32.5616,12.12h-.0035a3.71,3.71,0,0,0-.2233,1.1874,5.4352,5.4352,0,0,0,5.7941,5.543,5.7314,5.7314,0,0,0,4.2081-1.67A5.6,5.6,0,0,0,43.83,13.2114c-.02-2.4117-3.953-6.6959-5.817-8.4914-.2145.2148-.5353.5426-.9125.9449l-.0536.0572a23.5972,23.5972,0,0,0-4.3629,6.0921Z" fill="none"/><path d="M31.999,11.1735a24.6567,24.6567,0,0,1,4.1876-5.8174,23.7786,23.7786,0,0,0-3.3811-4.143c-1.37,1.3521-4.0814,4.3766-4.0814,6.0781A3.7859,3.7859,0,0,0,31.999,11.1735Z" fill="none"/><path d="M42.9691,17.7873a6.588,6.588,0,0,1-4.8337,1.9395h-.07a6.2586,6.2586,0,0,1-6.5993-5.8982q-.0144-.2571-.0077-.5148a4.34,4.34,0,0,1,.231-1.3251,4.6066,4.6066,0,0,1-3.8417-4.6973c0-1.4322,1.3646-3.3644,2.6179-4.839v0A21.44,21.44,0,0,0,22.4334.8764h-.0655a21.49,21.49,0,1,0,20.88,16.5884C43.1573,17.5741,43.0678,17.6848,42.9691,17.7873Z" fill="none"/><path d="M43.919,16.4684a6.7454,6.7454,0,0,0,.7874-3.264c-.0282-3.45-6.14-9.1726-6.4006-9.4148l-.303-.2816-.2987.2859c-.0565.0542-.4031.3905-.8951.9017a26.2669,26.2669,0,0,0-3.7-4.411L32.8089,0l-.3012.2832c-.0674.0636-.6763.6428-1.43,1.4723h0A22.304,22.304,0,0,0,22.4368,0h-.0684A22.3539,22.3539,0,1,0,43.9191,16.4682ZM37.0468,5.722,37.1,5.6648c.3768-.4022.6981-.73.9125-.9449,1.864,1.7955,5.7973,6.08,5.817,8.4914A5.6,5.6,0,0,1,42.3366,17.18a5.7314,5.7314,0,0,1-4.2077,1.67,5.4348,5.4348,0,0,1-5.7938-5.5436,3.71,3.71,0,0,1,.2233-1.1874h.0035l.1227-.3055A23.5875,23.5875,0,0,1,37.0468,5.722ZM32.8053,1.2136a23.7786,23.7786,0,0,1,3.3811,4.143,24.6568,24.6568,0,0,0-4.1874,5.817,3.7859,3.7859,0,0,1-3.2749-3.8822c0-1.7015,2.7112-4.726,4.0814-6.0777Zm4.702,36.361A21.4707,21.4707,0,1,1,22.3683.8764h.0655a21.44,21.44,0,0,1,8.0314,1.5758v0c-1.2532,1.4746-2.6179,3.4068-2.6179,4.839a4.6066,4.6066,0,0,0,3.8421,4.6978,4.34,4.34,0,0,0-.231,1.325A6.2586,6.2586,0,0,0,37.55,19.7344q.2576.0068.515-.0077h.07a6.588,6.588,0,0,0,4.8336-1.9393c.0987-.1027.1882-.2131.279-.3225A21.4552,21.4552,0,0,1,37.5073,37.5745Z" fill="#fff"/></g></g></g></g></svg>