<svg width="16" height="22" viewBox="0 0 16 22" version="1.1" xmlns="http://www.w3.org/2000/svg" xmlns:xlink="http://www.w3.org/1999/xlink">
<title>marker 2</title>
<desc>Created using Figma</desc>
<g id="Canvas" transform="translate(-1121 -5173)">
<g id="marker 2">
<g id="Layer 2">
<g id="Layer 1">
<g id="Vector">
<use xlink:href="#path0_fill" transform="translate(1121 5173)" fill="#9A9A9A"/>
</g>
</g>
</g>
</g>
</g>
<defs>
<path id="path0_fill" d="M 8 0C 3.65217 0 0 1.65 0 6.6C 0.862609 14.0938 7.90261 21.89 8 22C 8.09739 21.89 15.1374 14.0938 16 6.6C 16 1.65 12.3478 0 8 0ZM 8.00348 11.44C 7.31554 11.44 6.64306 11.2384 6.07106 10.8607C 5.49906 10.483 5.05325 9.9461 4.78998 9.31797C 4.52672 8.68985 4.45784 7.99869 4.59205 7.33188C 4.72626 6.66507 5.05753 6.05256 5.54398 5.57182C 6.03042 5.09108 6.65019 4.76369 7.3249 4.63105C 7.99962 4.49841 8.69898 4.56649 9.33455 4.82666C 9.97012 5.08684 10.5134 5.52743 10.8955 6.09273C 11.2777 6.65802 11.4817 7.32263 11.4817 8.0025C 11.4817 8.91418 11.1153 9.78852 10.463 10.4332C 9.81068 11.0778 8.92597 11.44 8.00348 11.44Z"/>
</defs>
</svg>
