<svg xmlns="http://www.w3.org/2000/svg" width="16" height="22" viewBox="0 0 16 22"><title>locations-selected</title><g id="Layer_2" data-name="Layer 2"><g id="Layer_1-2" data-name="Layer 1"><g id="Canvas"><g id="marker_2" data-name="marker 2"><g id="Layer_2-2" data-name="Layer 2"><g id="Layer_1-3" data-name="Layer 1"><g id="Vector"><path id="path0_fill" data-name="path0 fill" d="M8,0C3.6522,0,0,1.65,0,6.6.8626,14.0938,7.9026,21.89,8,22c.0974-.11,7.1374-7.9062,8-15.4C16,1.65,12.3478,0,8,0Zm.0035,11.44a3.5078,3.5078,0,0,1-1.9324-.5793A3.4466,3.4466,0,0,1,4.79,9.318a3.4081,3.4081,0,0,1,.754-3.7462,3.5009,3.5009,0,0,1,5.3515.5209,3.407,3.407,0,0,1-.4325,4.34A3.5,3.5,0,0,1,8.0035,11.44Z" fill="#ededed"/></g></g></g></g></g></g></g></svg>