<svg xmlns="http://www.w3.org/2000/svg" width="29" height="22" viewBox="0 0 29 22"><title>logo-selected</title><g id="Layer_2" data-name="Layer 2"><g id="Layer_1-2" data-name="Layer 1"><g id="Layer_2-2" data-name="Layer 2"><g id="Layer_1-2-2" data-name="Layer 1-2"><rect width="29" height="22" fill="none"/><g id="Canvas"><g id="w_logo" data-name="w logo"><g id="Group"><g id="Group-2"><g id="Vector"><path id="path0_fill" data-name="path0 fill" d="M7.53,14.6873a15.1108,15.1108,0,0,1-3.785,2.3147A9.9041,9.9041,0,0,1,0,13.2989,12.2522,12.2522,0,0,0,3.7853,10.978,16.8737,16.8737,0,0,0,7.53,14.6873Z" fill="#ededed"/></g><g id="Vector-2"><path id="path1_fill" data-name="path1 fill" d="M11.9028,9.619a38.1136,38.1136,0,0,1-3.7853,4.5269,17.7588,17.7588,0,0,1-3.7453-3.7492A36.5252,36.5252,0,0,0,8.1575,5.3481,19.3694,19.3694,0,0,0,11.9028,9.619Z" fill="#ededed"/></g><g id="Vector-3"><path id="path2_fill" data-name="path2 fill" d="M16.2748,12.6278A25.0725,25.0725,0,0,1,12.49,16.8771c-1.2485-.9693-2.497-1.5832-3.7455-2.4213A38.1589,38.1589,0,0,0,12.53,9.958C13.778,10.9191,15.0264,11.6387,16.2748,12.6278Z" fill="#ededed"/></g><g id="Vector-4"><path id="path3_fill" data-name="path3 fill" d="M20.49,7.5106a35.9932,35.9932,0,0,0-3.7853,4.467c-1.2485-.9741-2.4969-1.693-3.7454-2.6679a23.6929,23.6929,0,0,1,3.7854-4.1916C17.993,6.06,19.2414,6.6643,20.49,7.5106Z" fill="#ededed"/></g><g id="Vector-5"><path id="path4_fill" data-name="path4 fill" d="M24.7837,11.5308a34.0283,34.0283,0,0,0-3.7851,5,19.543,19.543,0,0,0-3.7455-4.2749A35.7387,35.7387,0,0,1,21.0385,7.768,17.7282,17.7282,0,0,1,24.7837,11.5308Z" fill="#ededed"/></g><g id="Vector-6"><path id="path5_fill" data-name="path5 fill" d="M29,8.7011a12.2526,12.2526,0,0,0-3.7854,2.3208,16.87,16.87,0,0,0-3.7453-3.7092A15.11,15.11,0,0,1,25.2545,4.998,9.9036,9.9036,0,0,1,29,8.7011Z" fill="#ededed"/></g></g></g></g></g></g></g></g></g></svg>