<svg xmlns="http://www.w3.org/2000/svg" width="16" height="16.0022" viewBox="0 0 16 16.0022"><title>drag</title><g id="Layer_2" data-name="Layer 2"><g id="Layer_1-2" data-name="Layer 1"><path d="M14.8881,7.7953H1.11L2.8582,6.0474a.2558.2558,0,0,0,0-.3085h0a.2558.2558,0,0,0-.3085,0L.4248,7.8639a.2558.2558,0,0,0,0,.3085L2.55,10.2973a.2558.2558,0,0,0,.3085,0h0a.2558.2558,0,0,0,0-.3085L1.11,8.2409H14.8881L13.14,9.9546a.2558.2558,0,0,0,0,.3085h0a.2558.2558,0,0,0,.3085,0l2.1249-2.1249a.2558.2558,0,0,0,0-.3085L13.4487,5.7047a.2558.2558,0,0,0-.3085,0h0a.2558.2558,0,0,0,0,.3085Z" fill="#fff"/><path d="M2.6717,10.7217a.5445.5445,0,0,1-.3914-.155L.1551,8.442a.6522.6522,0,0,1,0-.8476L2.28,5.47a.6506.6506,0,0,1,.8476,0,.6517.6517,0,0,1,0,.8471L2.0308,7.4143H13.98L12.8687,6.28a.6513.6513,0,0,1,.0028-.8462.6459.6459,0,0,1,.8462,0L15.8438,7.56a.6487.6487,0,0,1,.0009.8466l-2.1261,2.1257a.5993.5993,0,1,1-.8471-.848l1.0826-1.0621H2.0308l1.097,1.097a.6522.6522,0,0,1,0,.8476A.8064.8064,0,0,1,2.6717,10.7217ZM.695,8.1329l-.0009,0Z" fill="#fff"/><path d="M7.7936,1.112V14.89L6.0456,13.142a.2558.2558,0,0,0-.3085,0h0a.2558.2558,0,0,0,0,.3085l2.1249,2.1249a.2558.2558,0,0,0,.3085,0L10.2955,13.45a.2558.2558,0,0,0,0-.3085h0a.2558.2558,0,0,0-.3085,0L8.2391,14.89V1.112L9.9528,2.86a.2558.2558,0,0,0,.3085,0h0a.2558.2558,0,0,0,0-.3085L8.1363.4266a.2558.2558,0,0,0-.3085,0L5.7029,2.5515a.2558.2558,0,0,0,0,.3085h0a.2558.2558,0,0,0,.3085,0Z" fill="#fff"/><path d="M7.9829,16.0022a.543.543,0,0,1-.39-.1564L5.4677,13.72a.6522.6522,0,0,1,0-.8476.6461.6461,0,0,1,.8466-.0009l1.098,1.0975V2.02L6.2785,3.1322A.6465.6465,0,0,1,5.4341,3.13a.6463.6463,0,0,1-.0019-.8476L7.5584.1571A.6462.6462,0,0,1,8.4051.1562l2.1261,2.1257A.6523.6523,0,0,1,10.53,3.13a.6523.6523,0,0,1-.848-.0019L8.62,2.0454V13.9691l1.0966-1.0966a.6.6,0,0,1,.8508.8457L8.44,15.8449A.8081.8081,0,0,1,7.9829,16.0022Z" fill="#fff"/></g></g></svg>