<svg xmlns="http://www.w3.org/2000/svg" width="22.0002" height="14.9998" viewBox="0 0 22.0002 14.9998"><title>select-box-arrow</title><g id="Layer_2" data-name="Layer 2"><g id="Layer_1-2" data-name="Layer 1"><g id="Layer_2-2" data-name="Layer 2"><g id="Layer_1-2-2" data-name="Layer 1-2"><path d="M0,1.6313A1.6512,1.6512,0,0,1,.5657.3777,1.5325,1.5325,0,0,1,2.728.5251q.0261.03.0506.0612L11,10.823,19.2211.5863A1.5331,1.5331,0,0,1,21.3737.3274q.031.0244.0608.05a1.6726,1.6726,0,0,1,.201,2.2965L12.2071,14.4128a1.5349,1.5349,0,0,1-2.4144,0L.3642,2.6742A1.6642,1.6642,0,0,1,0,1.6313Z" fill="#9a9a9a"/></g></g></g></g></svg>