<svg width="22" height="22" viewBox="0 0 22 22" version="1.1" xmlns="http://www.w3.org/2000/svg" xmlns:xlink="http://www.w3.org/1999/xlink">
<title>settings</title>
<desc>Created using Figma</desc>
<g id="Canvas" transform="translate(-566 -5173)">
<g id="settings">
<g id="Group">
<g id="Group">
<g id="Group">
<g id="Vector">
<use xlink:href="#path0_fill" transform="translate(566 5173)" fill="#9A9A9A"/>
</g>
</g>
</g>
</g>
</g>
</g>
<defs>
<path id="path0_fill" d="M 9.71263 0.0254987C 9.27926 0.0254987 8.87138 0.356891 8.76941 0.764771L 8.41251 2.29432C 8.31054 2.7022 8.08111 3.08459 7.90267 3.16107C 7.72422 3.23755 6.98494 3.26304 6.62804 3.03361L 5.32793 2.21784C 4.97103 1.98841 4.43569 2.06489 4.12978 2.34531L 2.31981 4.15527C 2.01391 4.46118 1.96292 4.99652 2.19235 5.35342L 3.00811 6.67903C 3.23754 7.03592 3.33951 7.46929 3.26304 7.64774C 3.18656 7.82618 2.65122 8.36153 2.24334 8.4635L 0.739282 8.7949C 0.331402 8.89687 2.43115e-08 9.30476 2.43115e-08 9.71264L 2.43115e-08 12.2619C 2.43115e-08 12.6698 0.331402 13.1031 0.739282 13.2051L 2.26883 13.562C 2.67671 13.664 3.0591 13.8934 3.13557 14.0718C 3.21205 14.2503 3.23754 14.9896 3.00811 15.3465L 2.19235 16.6466C 1.96292 17.0035 2.0394 17.5388 2.31981 17.8447L 4.12978 19.6547C 4.43569 19.9606 4.97103 20.0116 5.32793 19.7822L 6.62804 18.9664C 6.98494 18.737 7.41831 18.635 7.59676 18.7115C 7.7752 18.7879 8.33604 19.3233 8.41251 19.7312L 8.76941 21.2607C 8.87138 21.6686 9.27926 22 9.71263 22L 12.2619 22C 12.6952 22 13.1031 21.6686 13.2051 21.2607L 13.562 19.7312C 13.664 19.3233 13.8934 18.9409 14.0718 18.8644C 14.2503 18.788 14.9896 18.7625 15.3465 18.9919L 16.6466 19.8076C 17.0035 20.0371 17.5388 19.9606 17.8447 19.6802L 19.6547 17.8702C 19.9606 17.5643 20.0116 17.029 19.7822 16.6721L 18.9664 15.372C 18.737 15.0151 18.635 14.5817 18.7115 14.4033C 18.788 14.2248 19.3233 13.664 19.7312 13.5875L 21.2607 13.2306C 21.6686 13.1286 22 12.7207 22 12.2874L 22 9.73812C 22 9.30475 21.6686 8.89687 21.2607 8.7949L 19.7312 8.43801C 19.3233 8.33604 18.9409 8.10661 18.8644 7.92816C 18.7879 7.74972 18.7625 7.01044 18.9919 6.65354L 19.8076 5.35342C 20.0371 4.99652 19.9606 4.46118 19.6802 4.15527L 17.8702 2.34531C 17.5643 2.0394 17.029 1.98841 16.6721 2.21784L 15.372 3.03361C 15.0151 3.26304 14.5817 3.36501 14.4032 3.28853C 14.2248 3.21205 13.664 2.67671 13.5875 2.26883L 13.2306 0.739285C 13.1286 0.331405 12.7207 -3.11187e-06 12.2874 -3.11187e-06L 9.71263 -3.11187e-06L 9.71263 0.0254987ZM 10.9873 5.88877C 13.7914 5.88877 16.0857 8.18309 16.0857 10.9873C 16.0857 13.7914 13.7914 16.0858 10.9873 16.0858C 8.18308 16.0858 5.88876 13.7914 5.88876 10.9873C 5.88876 8.1576 8.18308 5.88877 10.9873 5.88877Z"/>
</defs>
</svg>
