<svg xmlns="http://www.w3.org/2000/svg" width="22" height="22" viewBox="0 0 22 22"><title>settings-selected</title><g id="Layer_2" data-name="Layer 2"><g id="Layer_1-2" data-name="Layer 1"><g id="Canvas"><g id="settings"><g id="Group"><g id="Group-2" data-name="Group"><g id="Group-3" data-name="Group"><g id="Vector"><path id="path0_fill" data-name="path0 fill" d="M9.7126.0255a1.01,1.01,0,0,0-.9432.7393l-.3569,1.53a1.4388,1.4388,0,0,1-.51.8668A1.9353,1.9353,0,0,1,6.628,3.0336l-1.3-.8158A1.0406,1.0406,0,0,0,4.13,2.3453l-1.81,1.81a1.0008,1.0008,0,0,0-.1275,1.1981L3.0081,6.679a1.3389,1.3389,0,0,1,.2549.9687,2.1512,2.1512,0,0,1-1.02.8158L.7393,8.7949A1.004,1.004,0,0,0,0,9.7126v2.5493a1.0347,1.0347,0,0,0,.7393.9432l1.53.3569a1.4391,1.4391,0,0,1,.8667.51,1.9355,1.9355,0,0,1-.1275,1.2747l-.8158,1.3A1.04,1.04,0,0,0,2.32,17.8447l1.81,1.81a1.0008,1.0008,0,0,0,1.1982.1275l1.3-.8158a1.3389,1.3389,0,0,1,.9687-.2549,2.0127,2.0127,0,0,1,.8158,1.02l.3569,1.53A1.01,1.01,0,0,0,9.7126,22h2.5493a1.01,1.01,0,0,0,.9432-.7393l.3569-1.53a1.4393,1.4393,0,0,1,.51-.8668,1.9362,1.9362,0,0,1,1.2747.1275l1.3.8157a1.04,1.04,0,0,0,1.1981-.1274l1.81-1.81a1.0008,1.0008,0,0,0,.1275-1.1981l-.8158-1.3a1.3389,1.3389,0,0,1-.2549-.9687,2.013,2.013,0,0,1,1.02-.8158l1.53-.3569A1.01,1.01,0,0,0,22,12.2874V9.7381a1.01,1.01,0,0,0-.7393-.9432l-1.53-.3569a1.4389,1.4389,0,0,1-.8668-.51,1.9354,1.9354,0,0,1,.1275-1.2746l.8157-1.3A1.04,1.04,0,0,0,19.68,4.1553l-1.81-1.81a1.0007,1.0007,0,0,0-1.1981-.1275l-1.3.8158a1.339,1.339,0,0,1-.9688.2549,2.0134,2.0134,0,0,1-.8157-1.02l-.3569-1.53A1.01,1.01,0,0,0,12.2874,0H9.7126Zm1.2747,5.8633a5.0985,5.0985,0,1,1-5.0985,5.0985A5.1135,5.1135,0,0,1,10.9873,5.8888Z" fill="#ededed"/></g></g></g></g></g></g></g></g></svg>