<svg xmlns="http://www.w3.org/2000/svg" width="20.9997" height="21.9961" viewBox="0 0 20.9997 21.9961"><title>theme-selected</title><g id="Layer_2" data-name="Layer 2"><g id="Layer_1-2" data-name="Layer 1"><g id="Canvas"><g id="brush"><g id="Layer_2-2" data-name="Layer 2"><g id="Layer_1-3" data-name="Layer 1"><g id="Vector"><path id="path0_fill" data-name="path0 fill" d="M20.7686,20.567c-2.41-3.078-.7336-4.1773-3.2487-6.3759a3.2107,3.2107,0,0,0-4.2967-.11,3.5679,3.5679,0,0,0-.1048,4.8369c1.7816,2.3085,4.9255,2.9681,6.9166,3.078A.8614.8614,0,0,0,20.7686,20.567Z" fill="#ededed"/></g><g id="Vector-2" data-name="Vector"><path id="path1_fill" data-name="path1 fill" d="M13.5379,11.1176C9.7652,7.05,1.9055-1.5242.2287.2346S6.5165,10.0183,10.394,14.0857c.1048.11.21.11.3144-.11a5.3177,5.3177,0,0,1,1.1528-1.539,3.9154,3.9154,0,0,1,1.5719-.9893C13.6427,11.4474,13.6427,11.2275,13.5379,11.1176Z" fill="#ededed"/></g></g></g></g></g></g></g></svg>