<svg width="21" height="22" viewBox="0 0 21 22" version="1.1" xmlns="http://www.w3.org/2000/svg" xmlns:xlink="http://www.w3.org/1999/xlink">
<title>brush</title>
<desc>Created using Figma</desc>
<g id="Canvas" transform="translate(-630 -5173)">
<g id="brush">
<g id="Layer 2">
<g id="Layer 1">
<g id="Vector">
<use xlink:href="#path0_fill" transform="translate(642.225 5186.31)" fill="#9A9A9A"/>
</g>
<g id="Vector">
<use xlink:href="#path1_fill" transform="translate(630 5173)" fill="#9A9A9A"/>
</g>
</g>
</g>
</g>
</g>
<defs>
<path id="path0_fill" d="M 8.54362 7.25692C 6.13329 4.17892 7.81004 3.07963 5.29492 0.881051C 4.70667 0.332943 3.95233 0.0211633 3.16576 0.00103917C 2.37919 -0.0190849 1.61126 0.253748 0.998236 0.771123C 0.378722 1.40137 0.0204577 2.26199 0.000848779 3.16703C -0.0187601 4.07207 0.301861 4.94887 0.893439 5.60799C 2.67499 7.9165 5.8189 8.57607 7.81004 8.686C 8.64842 8.686 9.06761 7.80657 8.54362 7.25692Z"/>
<path id="path1_fill" d="M 13.5379 11.1176C 9.76522 7.05023 1.90545 -1.52422 0.228693 0.234642C -1.44806 1.9935 6.51651 10.0183 10.394 14.0857C 10.4988 14.1956 10.6036 14.1956 10.7084 13.9757C 10.9991 13.3927 11.3899 12.871 11.8612 12.4367C 12.3038 11.9821 12.8424 11.6432 13.4331 11.4474C 13.6427 11.4474 13.6427 11.2275 13.5379 11.1176Z"/>
</defs>
</svg>
